<?xml version="1.0" encoding="UTF-8"?>
<!DOCTYPE svg PUBLIC "-//W3C//DTD SVG 1.1//EN" "http://www.w3.org/Graphics/SVG/1.1/DTD/svg11.dtd">
<!-- Creator: CorelDRAW X8 -->
<svg xmlns="http://www.w3.org/2000/svg" xml:space="preserve" width="18.2878mm" height="4.2332mm" version="1.1" style="shape-rendering:geometricPrecision; text-rendering:geometricPrecision; image-rendering:optimizeQuality; fill-rule:evenodd; clip-rule:evenodd"
viewBox="0 0 1829 423"
 xmlns:xlink="http://www.w3.org/1999/xlink">
 <defs>
  <style type="text/css">
   <![CDATA[
    .fil0 {fill:#1C5A33}
   ]]>
  </style>
 </defs>
 <g id="Слой_x0020_1">
  <metadata id="CorelCorpID_0Corel-Layer"/>
  <path class="fil0" d="M489 179l-60 0 0 153 -57 0 0 -199 117 0 0 46zm81 153l0 0 -46 0 0 -201 70 0c23,0 41,6 53,17 14,12 21,29 21,51 0,23 -7,40 -22,51 -13,10 -31,15 -55,15l-21 0 0 67zm0 -160l0 0 0 53 20 0c23,0 34,-9 34,-27 0,-18 -11,-26 -34,-26l-20 0zm336 160l0 0 -56 0 0 -22c-7,9 -15,16 -26,21 -11,5 -22,7 -34,7 -29,0 -53,-10 -71,-31 -18,-20 -27,-45 -27,-75 0,-29 9,-54 27,-74 19,-21 42,-31 72,-31 26,0 46,9 59,27l0 -21 56 0 0 199zm-55 -98l0 0c0,-16 -5,-30 -15,-40 -10,-11 -23,-17 -39,-17 -15,0 -27,6 -36,17 -10,10 -15,23 -15,38 0,15 5,28 15,40 10,11 22,16 37,16 14,0 27,-5 37,-16 11,-11 16,-24 16,-38zm152 98l0 0 -46 0 0 -201 70 0c23,0 41,6 53,17 14,12 21,29 21,51 0,23 -7,40 -22,51 -13,10 -31,15 -55,15l-21 0 0 67zm0 -160l0 0 0 53 20 0c23,0 34,-9 34,-27 0,-18 -11,-26 -34,-26l-20 0z"/>
  <polygon class="fil0" points="1325,409 1270,409 1270,287 1187,287 1187,409 1133,409 1133,129 1187,129 1187,227 1270,227 1270,129 1325,129 "/>
  <path class="fil0" d="M329 412l-69 0 2 -62 -99 0 -37 62 -68 0 218 -341 51 0 2 341zm-64 -125l0 0 7 -122 -71 122 64 0z"/>
  <path class="fil0" d="M1546 401l-57 0 0 -118 -78 118 -50 0 0 -198 56 0 0 114 79 -114 50 0 0 198zm227 0l0 0 -66 0 -60 -96 0 96 -55 0 0 -198 55 0 0 91 62 -91 62 0 -69 97 71 101z"/>
 </g>
</svg>
